<svg width="268" height="801" viewBox="0 0 268 801" fill="none" xmlns="http://www.w3.org/2000/svg">
<rect x="1" y="422" width="45" height="46" fill="#2C9607"/>
<rect x="1" y="489" width="45" height="68" fill="#2C9607"/>
<rect x="1" y="524" width="23" height="68" fill="#2C9607"/>
<rect x="45" y="534" width="23" height="45" fill="#2C9607"/>
<rect x="46" y="600" width="23" height="68" fill="#2C9607"/>
<rect x="1" y="578" width="45" height="223" fill="#2C9607"/>
<rect x="223" y="645" width="45" height="156" fill="#2C9607"/>
<rect x="245" y="489" width="23" height="156" fill="#2C9607"/>
<rect x="245" y="156" width="23" height="45" fill="#2C9607"/>
<rect x="245" y="245" width="23" height="45" fill="#2C9607"/>
<rect x="245" y="333" width="23" height="46" fill="#2C9607"/>
<rect x="245" y="423" width="23" height="45" fill="#2C9607"/>
<rect x="223" y="378" width="23" height="46" fill="#2C9607"/>
<rect x="201" y="333" width="23" height="46" fill="#2C9607"/>
<rect x="156" y="333" width="23" height="46" fill="#2C9607"/>
<rect x="179" y="289" width="23" height="46" fill="#2C9607"/>
<rect x="156" y="245" width="23" height="45" fill="#2C9607"/>
<rect x="67" y="334" width="24" height="23" fill="#2C9607"/>
<rect x="44" y="290" width="24" height="23" fill="#2C9607"/>
<rect x="112" y="312" width="23" height="23" fill="#2C9607"/>
<rect x="67" y="245" width="24" height="23" fill="#2C9607"/>
<rect x="178" y="223" width="24" height="23" fill="#2C9607"/>
<rect x="222" y="200" width="24" height="23" fill="#2C9607"/>
<rect x="222" y="289" width="24" height="23" fill="#2C9607"/>
<rect x="223" y="112" width="24" height="23" fill="#2C9607"/>
<rect x="133" y="378" width="24" height="23" fill="#2C9607"/>
<rect x="90" y="445" width="45" height="23" fill="#2C9607"/>
<rect x="79" y="578" width="45" height="23" fill="#2C9607"/>
<rect x="90" y="556" width="22" height="22" fill="#2C9607" fill-opacity="0.4"/>
<rect x="24" y="557" width="22" height="22" fill="#2C9607" fill-opacity="0.4"/>
<rect x="46" y="579" width="22" height="22" fill="#2C9607" fill-opacity="0.4"/>
<rect x="90" y="601" width="22" height="22" fill="#2C9607" fill-opacity="0.4"/>
<rect x="69" y="624" width="22" height="22" fill="#2C9607" fill-opacity="0.4"/>
<rect x="46" y="668" width="22" height="22" fill="#2C9607" fill-opacity="0.4"/>
<rect x="112" y="646" width="22" height="22" fill="#2C9607" fill-opacity="0.4"/>
<rect x="135" y="601" width="22" height="22" fill="#2C9607" fill-opacity="0.4"/>
<rect x="157" y="580" width="22" height="22" fill="#2C9607" fill-opacity="0.4"/>
<rect x="201" y="579" width="22" height="22" fill="#2C9607" fill-opacity="0.4"/>
<rect x="156" y="469" width="22" height="22" fill="#2C9607" fill-opacity="0.4"/>
<rect x="246" y="401" width="22" height="22" fill="#2C9607" fill-opacity="0.4"/>
<rect x="246" y="467" width="22" height="22" fill="#2C9607" fill-opacity="0.4"/>
<rect x="201" y="379" width="22" height="22" fill="#2C9607" fill-opacity="0.4"/>
<rect x="222" y="311" width="24" height="22" fill="#2C9607" fill-opacity="0.4"/>
<rect x="201" y="245" width="22" height="44" fill="#2C9607" fill-opacity="0.4"/>
<rect x="178" y="201" width="24" height="22" fill="#2C9607" fill-opacity="0.4"/>
<rect x="179" y="134" width="24" height="22" fill="#2C9607" fill-opacity="0.4"/>
<rect x="156" y="67" width="24" height="45" fill="#2C9607" fill-opacity="0.4"/>
<rect x="244" y="67" width="24" height="45" fill="#2C9607" fill-opacity="0.4"/>
<rect y="45" width="24" height="24" fill="#2C9607" fill-opacity="0.4"/>
<rect y="89" width="24" height="24" fill="#2C9607" fill-opacity="0.4"/>
<rect x="89" width="24" height="24" fill="#2C9607" fill-opacity="0.4"/>
<rect x="223" y="24" width="24" height="24" fill="#2C9607" fill-opacity="0.4"/>
<rect x="67" y="155" width="24" height="24" fill="#2C9607" fill-opacity="0.4"/>
<rect x="113" y="178" width="23" height="23" fill="#2C9607" fill-opacity="0.4"/>
<rect x="112" y="223" width="23" height="23" fill="#2C9607" fill-opacity="0.4"/>
<rect x="45" y="201" width="23" height="23" fill="#2C9607" fill-opacity="0.4"/>
<rect x="24" y="245" width="22" height="45" fill="#2C9607" fill-opacity="0.4"/>
<rect x="67" y="312" width="23" height="45" fill="#2C9607" fill-opacity="0.4"/>
<rect x="1" y="329" width="23" height="45" fill="#2C9607" fill-opacity="0.4"/>
<rect x="112" y="323" width="23" height="45" fill="#2C9607" fill-opacity="0.4"/>
<rect x="67" y="379" width="23" height="45" fill="#2C9607" fill-opacity="0.4"/>
<rect x="23" y="401" width="23" height="45" fill="#2C9607" fill-opacity="0.4"/>
<rect x="45" y="445" width="23" height="45" fill="#2C9607" fill-opacity="0.4"/>
<rect x="1" y="467" width="23" height="45" fill="#2C9607" fill-opacity="0.4"/>
<rect x="44" y="512" width="23" height="24" fill="#2C9607" fill-opacity="0.4"/>
<rect x="89" y="489" width="23" height="23" fill="#2C9607" fill-opacity="0.4"/>
<rect x="134" y="400" width="23" height="23" fill="#2C9607" fill-opacity="0.4"/>
<rect x="134" y="290" width="23" height="22" fill="#2C9607" fill-opacity="0.4"/>
<rect x="134" y="356" width="22" height="45" fill="#2C9607" fill-opacity="0.4"/>
<rect x="201" y="667" width="22" height="22" fill="#2C9607" fill-opacity="0.4"/>
<rect x="224" y="601" width="22" height="44" fill="#2C9607" fill-opacity="0.4"/>
<rect x="134" y="690" width="22" height="25" fill="#2C9607" fill-opacity="0.4"/>
<rect x="23" y="334" width="23" height="46" fill="#2C9607"/>
<rect x="67" y="400" width="23" height="46" fill="#2C9607"/>
<rect x="112" y="400" width="23" height="46" fill="#2C9607"/>
<rect x="134" y="445" width="23" height="68" fill="#2C9607"/>
<rect x="112" y="489" width="23" height="68" fill="#2C9607"/>
<rect x="156" y="512" width="23" height="68" fill="#2C9607"/>
<rect x="134" y="534" width="23" height="68" fill="#2C9607"/>
<rect x="68" y="556" width="23" height="68" fill="#2C9607"/>
<rect x="112" y="578" width="23" height="68" fill="#2C9607"/>
<rect x="134" y="631" width="23" height="61" fill="#2C9607"/>
<rect x="133" y="623" width="23" height="68" fill="#2C9607"/>
<rect x="178" y="378" width="24" height="46" fill="#2C9607"/>
<rect x="201" y="423" width="23" height="46" fill="#2C9607"/>
<rect x="156" y="423" width="23" height="46" fill="#2C9607"/>
<rect x="68" y="645" width="23" height="156" fill="#2C9607"/>
<rect x="45" y="689" width="23" height="112" fill="#2C9607"/>
<rect x="112" y="667" width="23" height="134" fill="#2C9607"/>
<rect x="200" y="689" width="23" height="112" fill="#2C9607"/>
<rect x="134" y="712" width="23" height="89" fill="#2C9607"/>
<rect x="179" y="556" width="23" height="245" fill="#2C9607"/>
<rect x="156" y="601" width="23" height="200" fill="#2C9607"/>
<rect x="201" y="600" width="23" height="68" fill="#2C9607"/>
<rect x="223" y="556" width="23" height="46" fill="#2C9607"/>
<rect x="201" y="512" width="23" height="67" fill="#2C9607"/>
<rect x="178" y="467" width="23" height="46" fill="#2C9607"/>
<rect x="223" y="467" width="23" height="46" fill="#2C9607"/>
<rect x="201" y="444" width="23" height="46" fill="#2C9607"/>
<rect x="67" y="467" width="24" height="68" fill="#2C9607"/>
<rect x="1" y="401" width="23" height="21" fill="#2C9607"/>
<rect x="45" y="379" width="23" height="22" fill="#2C9607"/>
<rect x="1" y="356" width="23" height="24" fill="#2C9607"/>
<rect x="1" y="311" width="23" height="24" fill="#2C9607"/>
<rect x="1" y="267" width="23" height="23" fill="#2C9607"/>
<rect x="1" y="223" width="23" height="23" fill="#2C9607"/>
<rect x="1" y="178" width="23" height="23" fill="#2C9607"/>
<rect x="1" y="134" width="23" height="23" fill="#2C9607"/>
<rect x="90" y="89" width="23" height="24" fill="#2C9607"/>
<rect x="90" y="178" width="23" height="23" fill="#2C9607"/>
<rect x="156" y="155" width="23" height="46" fill="#2C9607"/>
<rect x="90" y="267" width="45" height="23" fill="#2C9607"/>
<rect x="90" y="356" width="45" height="23" fill="#2C9607"/>
<rect x="45" y="467" width="23" height="23" fill="#2C9607"/>
<rect x="90" y="534" width="23" height="23" fill="#2C9607"/>
<rect x="90" y="623" width="23" height="178" fill="#2C9607"/>
</svg>
